<?xml version="1.0" standalone="no"?>
<!DOCTYPE svg PUBLIC "-//W3C//DTD SVG 20010904//EN"
 "http://www.w3.org/TR/2001/REC-SVG-20010904/DTD/svg10.dtd">
<svg version="1.0" xmlns="http://www.w3.org/2000/svg"
 width="1271.000000pt" height="1280.000000pt" viewBox="0 0 1271.000000 1280.000000"
 preserveAspectRatio="xMidYMid meet">
<metadata>
Created by potrace 1.15, written by Peter Selinger 2001-2017
</metadata>
<g transform="translate(0.000000,1280.000000) scale(0.100000,-0.100000)"
fill="#ff9800" stroke="none">
<path d="M6810 10414 c-236 -207 -564 -420 -965 -625 -440 -225 -738 -330
-990 -348 l-90 -6 -32 -95 c-54 -161 -73 -277 -80 -471 -6 -196 4 -254 53
-300 15 -13 36 -47 49 -74 35 -80 104 -125 191 -125 99 0 283 76 477 197 262
165 687 495 891 693 271 262 474 566 609 910 73 187 72 192 -22 112 -99 -84
-95 -84 -66 -6 62 162 74 204 58 204 -5 0 -42 -30 -83 -66z"/>
<path d="M4615 7484 c-277 -43 -745 -143 -752 -160 -2 -6 12 -33 32 -60 51
-69 103 -190 120 -279 50 -258 -21 -789 -275 -2070 -183 -925 -206 -1088 -181
-1339 30 -305 101 -498 286 -780 246 -374 582 -563 1040 -583 495 -22 1057
199 1645 648 903 688 1829 1809 2731 3304 187 310 279 469 279 483 0 6 -22 23
-50 39 -27 15 -50 32 -50 36 0 4 7 22 16 40 9 17 13 32 8 34 -5 2 -107 61
-227 132 l-218 130 -23 -37 c-12 -20 -72 -116 -131 -212 -520 -840 -1106
-1626 -1680 -2255 -173 -190 -559 -572 -716 -708 -425 -369 -772 -582 -1086
-669 -64 -18 -106 -22 -233 -22 -143 0 -160 2 -222 26 -76 29 -145 77 -178
125 -35 51 -51 129 -57 280 -9 228 5 315 232 1453 228 1142 266 1390 267 1730
1 246 -10 291 -126 500 -87 157 -169 211 -331 216 -49 1 -103 0 -120 -2z"/>
</g>
</svg>
