<?xml version="1.0" standalone="no"?>
<!DOCTYPE svg PUBLIC "-//W3C//DTD SVG 20010904//EN"
 "http://www.w3.org/TR/2001/REC-SVG-20010904/DTD/svg10.dtd">
<svg version="1.0" xmlns="http://www.w3.org/2000/svg"
 width="1280.000000pt" height="1280.000000pt" viewBox="0 0 1280.000000 1280.000000"
 preserveAspectRatio="xMidYMid meet">
<metadata>
Created by potrace 1.15, written by Peter Selinger 2001-2017
</metadata>
<g transform="translate(0.000000,1280.000000) scale(0.100000,-0.100000)"
fill="#e91e63" stroke="none">
<path d="M4631 11486 c-27 -39 -35 -45 -48 -35 -12 10 -16 10 -24 -2 -5 -8 -9
-19 -9 -26 0 -8 -24 -13 -70 -15 l-70 -3 45 -36 c42 -34 43 -37 22 -43 -12 -3
-35 -6 -50 -6 -39 0 -44 -25 -12 -53 23 -19 25 -25 13 -35 -12 -10 -22 -7 -52
16 -30 22 -35 32 -31 55 4 24 1 27 -22 27 -15 0 -37 10 -50 22 -29 27 -39 18
-25 -21 10 -27 8 -32 -16 -50 l-27 -19 28 -7 c31 -8 56 -53 37 -65 -7 -5 -6
-11 5 -20 18 -15 18 -15 31 25 11 34 28 40 69 25 21 -8 25 -14 17 -22 -16 -16
-15 -28 3 -28 8 0 15 -7 15 -15 0 -8 5 -15 10 -15 6 0 10 6 10 14 0 22 27 27
33 6 5 -18 47 -25 47 -8 0 4 7 5 15 2 8 -4 15 -1 15 5 0 6 11 11 24 11 13 0
26 5 28 12 3 7 14 9 31 4 29 -7 37 -26 12 -26 -8 0 -15 -4 -15 -10 0 -5 6 -10
13 -10 8 0 7 -3 -3 -10 -9 -6 -19 -5 -29 3 -12 10 -13 9 -3 -10 16 -29 33 -33
55 -12 17 15 18 22 8 50 -21 60 -9 65 45 17 l36 -32 -7 69 -8 68 34 30 c19 16
51 36 72 44 20 8 37 18 37 22 0 4 -37 12 -82 17 l-83 9 -14 45 c-28 91 -24 89
-60 36z m-171 -276 c0 -5 -4 -10 -10 -10 -5 0 -10 5 -10 10 0 6 5 10 10 10 6
0 10 -4 10 -10z"/>
<path d="M5550 11396 c0 -19 56 -50 65 -36 9 15 -5 32 -21 26 -7 -3 -20 2 -29
10 -13 14 -15 14 -15 0z"/>
<path d="M6195 11390 c6 -19 2 -28 -20 -46 l-28 -22 31 -6 c18 -5 33 -16 37
-29 6 -18 9 -13 14 24 4 26 12 53 19 62 10 12 9 15 -5 20 -10 2 -26 8 -37 12
-16 7 -17 5 -11 -15z"/>
<path d="M6097 11379 c7 -7 15 -10 18 -7 3 3 -2 9 -12 12 -14 6 -15 5 -6 -5z"/>
<path d="M6076 11361 c-3 -5 1 -11 9 -15 8 -3 15 -1 15 4 0 13 -18 22 -24 11z"/>
<path d="M5821 11326 c-13 -24 -8 -46 10 -46 5 0 9 7 9 16 0 11 6 13 19 9 11
-3 22 -1 26 5 4 6 16 8 28 5 17 -5 19 -4 7 4 -8 6 -22 8 -31 6 -9 -3 -22 1
-29 10 -17 21 -24 19 -39 -9z"/>
<path d="M5070 11331 c0 -5 5 -13 10 -16 6 -3 10 -2 10 4 0 5 -4 13 -10 16 -5
3 -10 2 -10 -4z"/>
<path d="M5111 11311 c-17 -15 -28 -18 -35 -11 -16 16 -26 12 -26 -14 0 -13
-7 -29 -15 -36 -19 -16 -19 -30 -1 -30 18 0 29 -31 20 -54 -4 -9 -1 -16 6 -16
6 0 17 14 23 30 6 17 14 30 17 30 8 0 5 -41 -5 -64 -5 -11 -3 -21 5 -26 7 -4
10 -12 6 -18 -11 -18 79 -38 99 -21 21 16 50 3 53 -23 3 -24 38 -46 51 -33 8
9 7 75 -1 75 -4 0 -8 -4 -8 -10 0 -16 -14 -12 -39 11 -12 12 -20 27 -17 35 4
11 -8 13 -67 10 -40 -2 -65 -2 -56 1 11 3 15 13 13 33 -3 24 0 30 16 30 11 0
28 5 38 11 17 11 17 14 3 45 -9 20 -23 34 -32 34 -10 0 -19 7 -21 16 -3 13 -7
13 -27 -5z"/>
<path d="M5230 11315 c-8 -9 -8 -15 -2 -15 12 0 26 19 19 26 -2 2 -10 -2 -17
-11z"/>
<path d="M5965 11313 c-47 -25 -72 -47 -68 -60 3 -7 -1 -21 -7 -32 -9 -18 -8
-21 10 -21 30 0 47 -48 23 -66 -10 -7 -28 -14 -40 -14 -16 0 -20 -5 -16 -20 3
-11 0 -27 -7 -35 -10 -12 -10 -15 1 -15 8 0 27 -10 42 -23 24 -19 27 -27 21
-51 -5 -22 -28 -42 -101 -89 -51 -33 -92 -65 -90 -71 2 -6 31 -12 65 -14 l61
-3 32 57 32 57 86 -6 c47 -4 87 -10 89 -15 1 -5 13 -7 26 -5 13 3 27 0 30 -6
4 -6 0 -11 -8 -11 -10 0 -13 -6 -9 -16 4 -10 -2 -17 -16 -21 -16 -4 -19 -8
-10 -19 16 -19 2 -53 -19 -47 -15 3 -18 -2 -18 -30 0 -25 6 -36 24 -45 20 -9
24 -8 32 12 11 31 36 39 55 19 15 -14 18 -14 34 3 9 11 20 27 24 38 7 18 8 18
27 1 19 -17 20 -17 20 2 0 11 9 32 20 46 l20 26 -20 6 c-22 7 -28 35 -6 35 8
0 14 11 14 26 0 15 6 30 13 35 10 6 11 9 2 9 -7 0 -13 7 -13 15 0 11 -7 14
-22 10 -13 -3 -34 -7 -48 -7 -14 -1 -28 -6 -31 -10 -3 -5 -16 1 -29 12 -13 11
-20 23 -17 26 3 4 14 -1 23 -10 21 -22 29 -14 12 13 -9 15 -21 20 -43 18 -35
-3 -89 30 -76 47 4 6 2 22 -4 34 -7 13 -15 19 -19 14 -9 -16 -55 -12 -49 4 3
8 9 14 14 14 4 0 6 6 3 14 -3 8 6 38 19 68 23 48 23 55 9 71 -8 9 -21 17 -29
17 -7 0 -16 7 -19 15 -7 18 -11 18 -49 -2z m285 -427 c0 -19 -27 -28 -33 -11
-7 15 1 25 20 25 7 0 13 -6 13 -14z m-90 -120 c0 -3 -4 -8 -10 -11 -5 -3 -10
-1 -10 4 0 6 5 11 10 11 6 0 10 -2 10 -4z"/>
<path d="M5617 11308 c-27 -10 -29 -13 -25 -59 1 -27 0 -49 -4 -49 -5 0 -8 -9
-8 -20 0 -25 -35 -27 -49 -2 -9 16 -11 16 -25 -3 -19 -24 -20 -45 -3 -45 6 0
21 -7 31 -15 16 -12 17 -18 8 -27 -17 -17 -15 -38 4 -38 9 0 23 -8 30 -17 8
-11 13 -13 14 -6 0 18 97 9 119 -11 17 -15 19 -15 31 -1 8 9 22 14 32 12 14
-4 18 1 18 19 0 16 4 22 14 18 15 -6 28 19 20 39 -3 8 -18 24 -34 36 -19 13
-30 31 -30 46 0 26 -15 41 -25 25 -10 -16 -22 -12 -39 15 -10 15 -12 25 -5 25
6 0 13 -9 16 -20 5 -20 23 -28 23 -10 0 6 11 10 25 10 14 0 25 -4 25 -10 0 -5
11 -10 25 -10 23 0 24 2 15 20 -6 11 -18 20 -26 20 -9 0 -29 14 -46 30 -33 33
-48 38 -48 15 0 -8 -9 -15 -20 -15 -18 0 -19 3 -10 20 9 17 8 20 -7 19 -10 0
-31 -5 -46 -11z m57 -94 c22 -8 20 -34 -2 -34 -24 0 -32 8 -25 26 6 16 6 16
27 8z m-110 -80 c9 -3 16 -10 16 -14 0 -10 -38 -1 -46 11 -6 10 7 12 30 3z"/>
<path d="M5485 11291 c-3 -6 2 -14 12 -18 32 -12 43 -29 30 -43 -10 -10 -8
-12 6 -6 10 3 26 6 34 6 14 0 14 3 -2 20 -10 11 -23 20 -28 20 -6 0 -18 7 -28
16 -11 10 -19 12 -24 5z"/>
<path d="M5212 11208 c3 -7 14 -14 26 -16 20 -3 55 -38 65 -65 3 -9 9 -7 22 4
16 15 15 17 -10 23 -15 4 -25 9 -22 13 10 9 -27 40 -56 47 -21 5 -28 3 -25 -6z"/>
<path d="M4896 11133 c-5 -12 -9 -14 -18 -5 -16 16 -52 16 -42 0 5 -8 2 -9 -9
-5 -11 4 -17 1 -17 -7 0 -20 43 -29 53 -11 4 8 13 12 20 9 7 -2 18 5 25 16 7
11 8 20 3 20 -5 0 -12 -8 -15 -17z"/>
<path d="M6230 11110 c0 -13 5 -18 15 -14 12 5 13 10 4 20 -15 19 -19 18 -19
-6z"/>
<path d="M4486 11103 c-6 -14 -5 -15 5 -6 7 7 10 15 7 18 -3 3 -9 -2 -12 -12z"/>
<path d="M4441 11081 c-7 -5 -12 -14 -10 -20 3 -7 11 -3 21 9 18 21 13 26 -11
11z"/>
<path d="M6284 11050 c-6 -6 -8 -24 -6 -40 3 -25 7 -28 18 -19 15 13 18 37 6
56 -6 9 -11 10 -18 3z"/>
<path d="M5170 11024 c0 -8 5 -12 10 -9 6 4 8 11 5 16 -9 14 -15 11 -15 -7z"/>
<path d="M5419 11001 c-13 -11 -20 -23 -16 -27 4 -4 20 4 35 19 30 31 16 37
-19 8z"/>
<path d="M4530 10958 c0 -10 -9 -22 -20 -28 -11 -6 -17 -16 -14 -25 4 -9 1
-22 -6 -30 -10 -12 -10 -15 3 -15 27 0 31 -22 8 -42 -28 -22 -45 -15 -31 13 9
16 7 19 -9 19 -11 0 -22 4 -25 9 -3 5 -21 5 -40 1 -48 -11 -86 -2 -86 20 0 11
-9 19 -23 22 -21 4 -23 1 -23 -28 1 -17 4 -30 8 -28 9 6 48 -28 48 -41 0 -7
12 -10 32 -7 39 6 100 -25 96 -47 -5 -24 -31 -19 -45 9 -12 25 -13 24 -13 -12
0 -26 4 -38 14 -38 27 0 24 -39 -6 -85 -16 -25 -34 -45 -40 -45 -5 0 -22 8
-36 18 -15 11 -43 24 -62 31 -19 6 -113 54 -207 106 -164 90 -193 104 -193 89
0 -4 66 -132 146 -285 l145 -279 -127 -147 c-142 -166 -188 -229 -175 -238 6
-3 22 -5 38 -4 48 3 337 -13 348 -19 5 -3 25 -5 45 -3 48 3 82 -28 74 -68 -6
-26 -4 -29 15 -24 29 7 49 -36 33 -72 -9 -20 -9 -25 2 -25 16 0 33 -73 18 -78
-19 -6 -47 -31 -34 -32 21 0 13 -24 -18 -55 -16 -16 -40 -43 -52 -58 l-23 -28
-63 22 c-35 12 -65 19 -68 17 -2 -3 10 -35 27 -71 l31 -66 -46 -64 c-50 -70
-55 -83 -29 -73 20 8 63 -30 63 -56 0 -14 -8 -18 -35 -18 -41 0 -44 -11 -12
-37 13 -10 24 -25 25 -33 0 -8 7 -33 16 -55 19 -51 20 -69 1 -105 -19 -36 -12
-37 40 -5 22 14 48 25 57 25 9 0 19 6 21 13 3 6 6 2 6 -9 1 -26 -25 -102 -41
-122 -12 -14 -24 -102 -14 -102 3 0 22 11 42 25 20 14 46 25 58 25 12 1 32 7
46 15 39 22 53 17 84 -31 26 -41 29 -43 41 -27 15 20 16 19 92 -51 18 -16 35
-27 38 -24 4 3 0 32 -8 64 -8 33 -15 70 -16 84 -1 14 -3 36 -4 49 -2 21 4 26
43 36 28 7 40 14 32 19 -22 14 -13 25 45 55 l58 29 -40 11 c-22 6 -44 11 -50
11 -5 0 -17 5 -25 10 -13 9 -11 13 10 30 l25 20 -30 0 c-16 0 -49 9 -72 20
-41 18 -43 21 -43 62 l-1 43 -19 -24 -20 -23 -15 34 c-8 20 -16 46 -19 59 -2
13 -9 37 -15 53 -11 28 -3 45 22 46 18 0 4 19 -23 30 -16 7 -30 18 -30 26 0 8
-6 11 -17 7 -10 -4 -14 -2 -9 5 3 6 2 13 -4 17 -6 4 -4 15 6 30 9 14 20 22 25
19 15 -9 10 14 -7 31 -13 13 -14 21 -6 40 10 21 14 23 44 14 18 -5 34 -9 36
-9 1 0 -2 9 -8 21 -7 11 -14 32 -16 46 l-5 25 26 -28 c15 -16 34 -41 43 -56
18 -30 32 -36 32 -14 0 10 7 12 22 8 14 -3 19 -2 14 6 -4 7 -2 12 4 12 7 0 8
25 4 80 -6 67 -4 84 11 107 10 15 24 32 32 36 7 5 11 12 8 18 -4 5 2 9 12 9
31 1 50 24 58 68 6 40 9 42 46 48 27 5 38 11 35 20 -3 9 0 11 11 7 11 -4 14
-3 9 6 -4 6 -4 11 1 10 12 -4 63 23 63 33 0 4 9 8 20 8 11 0 20 5 20 10 0 6 6
10 13 10 27 0 50 26 43 48 -4 12 -12 20 -17 17 -5 -4 -9 4 -10 17 -1 54 -42
111 -117 163 l-73 50 1 275 c1 151 1 281 1 288 -2 20 -26 14 -52 -14 -38 -41
-81 -62 -124 -62 -45 0 -79 14 -69 29 3 5 -1 20 -9 33 -12 17 -13 26 -4 35 8
8 8 11 -1 11 -18 0 -15 18 3 22 12 2 9 11 -14 38 -22 25 -30 30 -31 18z m73
-245 c8 -7 -21 -43 -35 -43 -13 0 -9 38 5 43 18 8 23 8 30 0z m-163 -78 c0 -9
6 -12 16 -8 13 5 15 2 9 -18 -4 -13 -14 -35 -23 -49 l-16 -25 -7 39 c-7 43 -2
76 12 76 5 0 9 -7 9 -15z m68 -992 c2 -14 -4 -26 -17 -32 -25 -14 -35 0 -27
35 8 31 40 29 44 -3z m-76 -176 c-2 -4 -8 -5 -13 -2 -11 7 -12 58 -1 69 7 8
21 -53 14 -67z m33 -27 c3 -5 1 -10 -4 -10 -6 0 -11 5 -11 10 0 6 2 10 4 10 3
0 8 -4 11 -10z m21 -186 c-3 -9 -6 -18 -6 -20 0 -2 -7 -4 -15 -4 -18 0 -20 26
-2 33 23 10 29 7 23 -9z m-36 -81 c-1 -19 -19 -35 -30 -28 -10 6 -9 11 5 22
22 15 25 16 25 6z"/>
<path d="M4300 10756 c0 -9 30 -14 35 -6 4 6 -3 10 -14 10 -12 0 -21 -2 -21
-4z"/>
<path d="M4307 10704 c-3 -3 -3 -12 0 -20 3 -8 -1 -14 -11 -14 -9 0 -13 -6
-10 -15 9 -22 44 4 44 32 0 22 -10 30 -23 17z"/>
<path d="M6125 10658 c-4 -10 -14 -18 -22 -18 -10 0 -12 -6 -7 -22 3 -13 11
-24 15 -26 5 -2 9 -13 9 -24 0 -16 3 -18 14 -9 8 6 16 21 19 31 4 16 0 20 -20
20 -25 0 -25 1 -9 19 10 11 16 26 13 33 -3 9 -7 8 -12 -4z"/>
<path d="M6277 10663 c-4 -3 -7 -11 -7 -17 0 -6 5 -5 12 2 6 6 9 14 7 17 -3 3
-9 2 -12 -2z"/>
<path d="M6130 10480 c0 -23 15 -27 23 -6 3 8 -1 17 -9 20 -9 4 -14 -1 -14
-14z"/>
<path d="M6085 10430 c-9 -15 35 -54 48 -41 7 7 5 16 -8 31 -20 22 -31 25 -40
10z"/>
<path d="M6064 10354 c-22 -17 -25 -23 -12 -24 9 0 18 -5 20 -10 2 -6 15 3 30
19 25 26 26 29 9 34 -11 2 -31 -5 -47 -19z"/>
<path d="M6135 10347 c-16 -12 -16 -18 -7 -47 15 -43 15 -48 -1 -26 -13 18
-15 17 -53 -2 -31 -17 -34 -21 -17 -22 12 0 24 -3 26 -7 9 -15 -11 -49 -37
-63 -15 -7 -24 -20 -22 -27 3 -7 1 -15 -4 -18 -6 -4 -10 -15 -10 -26 0 -15 -7
-19 -37 -20 -21 -1 -51 -4 -67 -8 -28 -6 -27 -7 43 -56 l72 -49 -7 -40 c-3
-22 -10 -47 -14 -56 -4 -8 -14 -28 -22 -45 -9 -17 -12 -40 -9 -55 l7 -24 16
22 c8 13 19 22 24 21 25 -4 35 2 29 20 -3 10 1 23 9 30 12 10 17 8 26 -9 9
-16 15 -19 23 -11 6 6 21 11 33 11 17 0 21 -4 17 -20 -3 -12 -14 -20 -27 -20
-17 0 -18 -2 -6 -10 13 -8 12 -10 -2 -10 -10 0 -18 -4 -18 -10 0 -5 7 -10 15
-10 26 0 16 -15 -46 -71 -103 -91 -85 -89 -249 -25 -79 30 -145 54 -146 53 -2
-1 25 -65 59 -141 l61 -138 -124 -119 c-69 -65 -120 -118 -113 -119 7 0 82 11
167 25 85 14 157 25 160 25 5 0 46 -69 86 -148 25 -50 29 -66 20 -77 -15 -18
-5 -33 26 -45 22 -9 32 -38 18 -53 -4 -3 -7 -24 -8 -45 -2 -35 0 -39 18 -34
12 3 26 9 33 14 7 6 19 4 32 -4 27 -16 26 -24 -1 -32 -23 -6 -23 -6 -3 -19 12
-7 19 -20 17 -29 -5 -24 -19 -23 -27 2 -8 26 -19 25 -44 -2 -16 -16 -18 -25
-10 -35 15 -17 44 -16 85 3 42 20 68 12 59 -16 -4 -13 0 -31 9 -45 11 -16 14
-34 10 -51 l-7 -26 27 17 c22 14 26 25 26 62 0 40 -2 44 -20 38 -17 -5 -20 -2
-20 22 0 16 6 35 12 41 10 10 10 15 -1 21 -7 5 -10 14 -7 20 4 6 0 12 -8 12
-9 1 -22 2 -28 3 -7 0 -14 9 -16 20 -3 11 0 16 7 12 6 -4 11 -2 11 3 0 6 5 11
10 11 6 0 10 -10 10 -22 1 -22 1 -22 15 -4 18 24 49 14 40 -13 -5 -16 -2 -18
15 -14 11 3 26 0 34 -6 11 -10 14 -7 12 14 0 14 -8 28 -18 31 -10 3 -18 9 -18
14 0 5 -6 7 -14 4 -8 -3 -16 -1 -19 3 -8 12 41 73 59 73 8 0 14 7 14 15 0 8 4
15 9 15 14 0 23 32 11 44 -6 6 -5 15 6 27 21 23 10 39 -26 39 -34 0 -96 56
-81 74 5 6 12 31 16 56 l8 45 -27 -25 c-23 -23 -24 -26 -9 -37 16 -12 16 -13
0 -13 -9 0 -17 5 -17 10 0 18 -23 11 -51 -16 -28 -27 -53 -25 -45 4 2 10 7 33
10 53 6 35 9 37 53 44 25 4 55 10 67 15 11 5 65 18 119 31 53 12 96 24 94 25
-2 2 -37 20 -77 40 -41 20 -82 44 -91 55 -9 10 -19 16 -22 12 -4 -3 -22 5 -42
18 -43 30 -44 42 -10 204 14 66 25 122 25 125 0 3 -12 6 -27 5 -21 0 -29 5
-31 22 l-3 22 46 -25 c25 -15 48 -24 51 -22 2 3 -9 40 -26 82 l-31 77 63 59
63 59 -86 1 -85 0 -29 60 c-26 54 -27 61 -13 77 13 15 34 113 25 113 -2 0 -11
-6 -22 -13z m8 -477 c-13 -14 -21 -17 -35 -9 -23 12 -13 33 13 26 11 -3 19 -1
19 5 0 5 4 7 10 3 5 -3 2 -14 -7 -25z m51 -765 c7 -20 -3 -45 -20 -45 -7 0
-16 -11 -20 -24 -7 -31 -31 -41 -42 -18 -11 20 -6 37 20 75 21 29 52 36 62 12z"/>
<path d="M6226 10179 c-16 -16 -17 -19 -4 -19 18 0 43 26 31 33 -4 2 -17 -4
-27 -14z"/>
<path d="M4310 9576 c0 -8 -7 -19 -16 -24 -13 -7 -12 -11 8 -24 19 -12 26 -13
35 -3 9 10 9 15 -3 19 -9 3 -14 13 -10 21 3 8 1 17 -4 20 -6 4 -10 -1 -10 -9z"/>
<path d="M4500 9451 c0 -5 5 -13 10 -16 6 -3 10 -2 10 4 0 5 -4 13 -10 16 -5
3 -10 2 -10 -4z"/>
<path d="M4653 9408 c3 -8 27 -48 53 -89 l48 -74 7 55 c8 60 2 73 -40 94 -48
25 -75 30 -68 14z"/>
<path d="M4298 8648 c0 -7 -2 -18 -2 -25 -1 -6 -12 -23 -25 -37 -20 -21 -21
-26 -9 -31 9 -4 23 -5 31 -3 9 2 22 -4 29 -12 12 -14 16 -13 40 13 l28 28 -30
10 c-16 6 -29 14 -28 17 1 4 -1 17 -6 30 -8 24 -25 30 -28 10z"/>
<path d="M4362 8624 c2 -9 13 -21 26 -25 22 -8 22 -8 5 16 -21 28 -36 32 -31
9z"/>
<path d="M4530 8554 c0 -9 -8 -23 -17 -31 -13 -10 -15 -16 -5 -19 6 -3 10 -10
7 -14 -6 -10 16 -50 27 -50 5 0 8 16 8 35 0 29 5 37 28 46 l27 11 -27 10 c-16
5 -28 14 -28 19 0 5 -4 9 -10 9 -5 0 -10 -7 -10 -16z"/>
<path d="M6228 8555 c-3 -25 -5 -32 -12 -62 -5 -20 -14 -34 -24 -34 -9 -1 -24
-2 -34 -3 -29 -2 -31 -15 -5 -27 22 -10 29 -9 43 6 20 20 33 3 15 -19 -7 -9
-7 -16 0 -23 8 -8 8 -17 0 -31 -6 -10 -8 -22 -5 -25 11 -11 -7 -45 -26 -50
-12 -3 -20 -14 -20 -25 0 -12 -9 -22 -21 -25 -15 -4 -20 -11 -15 -23 8 -20
-10 -44 -34 -44 -13 0 -16 6 -12 25 5 28 -9 33 -28 10 -9 -11 -17 -12 -30 -5
-28 15 -29 13 -17 -20 10 -25 9 -33 -3 -40 -12 -8 -11 -10 7 -10 12 0 24 -4
27 -9 9 -14 -20 -32 -39 -25 -15 6 -16 4 -7 -13 9 -15 7 -25 -5 -43 -15 -21
-15 -22 6 -15 16 5 27 0 41 -17 l19 -23 1 28 c0 20 5 27 20 27 19 0 19 -2 -5
-40 -14 -22 -23 -40 -21 -40 2 0 20 7 40 15 35 15 61 12 54 -5 -5 -13 -99 -90
-110 -90 -6 0 -8 10 -4 25 4 15 2 25 -5 25 -6 0 -13 -9 -16 -20 -4 -16 -11
-18 -31 -13 -17 4 -23 2 -18 -6 4 -6 0 -21 -8 -33 -17 -24 -6 -58 19 -58 26 0
16 -30 -15 -48 -36 -20 -38 -30 -7 -34 14 -2 23 -11 25 -25 2 -15 10 -23 22
-23 16 0 50 -48 50 -71 0 -4 -13 -21 -30 -36 -21 -19 -28 -34 -24 -48 7 -27
44 -31 44 -4 0 10 7 19 15 19 8 0 15 -5 15 -11 0 -16 45 -6 46 11 1 8 3 17 4
20 1 3 3 26 5 52 3 46 3 47 -23 42 -19 -3 -35 2 -56 21 -26 23 -27 25 -8 25
11 0 22 -4 24 -10 2 -5 12 -7 24 -4 16 4 20 11 16 30 -2 13 -11 24 -18 24 -8
0 -14 5 -14 10 0 11 30 14 30 3 1 -21 30 -44 47 -39 18 6 21 39 12 116 -6 45
3 110 16 124 8 8 15 30 15 48 0 27 6 37 32 53 18 10 28 20 23 21 -6 1 -22 5
-37 8 -24 6 -28 11 -28 44 l-1 37 -27 -33 c-37 -45 -75 -42 -79 6 -3 30 9 43
21 23 3 -5 15 -7 26 -4 11 3 18 9 15 13 -8 13 18 18 43 9 18 -7 22 -5 22 11 0
11 5 20 10 20 7 0 7 6 0 20 -9 17 -8 20 8 20 15 0 19 -8 20 -36 2 -50 7 -52
41 -20 25 24 32 26 51 16 33 -17 41 -8 23 28 -14 29 -14 34 -1 50 33 38 33 45
1 39 -35 -7 -73 15 -73 42 0 14 6 17 26 13 23 -4 25 -2 20 16 -4 12 -3 30 3
40 7 13 6 27 -5 46 -8 16 -14 38 -14 49 0 20 0 20 -14 1 -8 -10 -16 -17 -18
-14 -3 3 -12 16 -21 30 -9 13 -18 20 -19 15z m12 -211 c0 -8 -4 -12 -10 -9 -5
3 -10 10 -10 16 0 5 5 9 10 9 6 0 10 -7 10 -16z m-220 -824 c0 -5 -4 -10 -10
-10 -5 0 -10 5 -10 10 0 6 5 10 10 10 6 0 10 -4 10 -10z"/>
<path d="M4250 8541 c0 -8 41 -23 47 -17 2 1 -8 8 -22 14 -14 6 -25 8 -25 3z"/>
<path d="M6091 8394 c-31 -22 -35 -23 -63 -8 l-30 15 3 -29 c3 -22 -3 -36 -21
-51 l-25 -20 33 -1 c28 0 36 -5 45 -30 6 -16 14 -30 18 -30 4 0 12 14 18 30 9
27 14 30 50 30 49 0 52 9 11 32 -31 17 -31 18 -15 49 9 17 15 32 13 33 -2 2
-18 -8 -37 -20z"/>
<path d="M4540 8330 c0 -5 5 -10 11 -10 5 0 7 5 4 10 -3 6 -8 10 -11 10 -2 0
-4 -4 -4 -10z"/>
<path d="M4288 8178 c-9 -22 18 -75 42 -83 31 -10 35 0 11 24 -12 12 -21 25
-21 29 0 5 -6 16 -13 26 -11 15 -15 16 -19 4z"/>
<path d="M4507 8063 c-13 -13 -19 -14 -29 -5 -19 19 -28 14 -28 -17 0 -16 -7
-37 -16 -46 -15 -15 -15 -17 4 -22 11 -2 23 -16 27 -30 4 -19 9 -22 19 -14 7
6 21 8 31 5 15 -6 17 -3 11 19 -5 22 -3 27 11 28 16 0 15 2 -2 9 -11 5 -16 9
-11 9 5 1 1 10 -10 22 -11 12 -13 19 -5 17 7 -2 17 7 22 20 10 26 0 29 -24 5z"/>
<path d="M4275 7950 c-3 -5 -1 -10 4 -10 6 0 11 5 11 10 0 6 -2 10 -4 10 -3 0
-8 -4 -11 -10z"/>
<path d="M4263 7924 c-7 -3 -10 -11 -7 -19 3 -7 -3 -16 -15 -20 -22 -7 -29
-25 -11 -25 6 0 22 -12 35 -27 l24 -28 1 25 c1 36 11 47 48 53 19 3 36 8 39
11 12 12 -92 39 -114 30z"/>
<path d="M4481 7887 c-25 -25 -7 -36 23 -14 16 12 17 15 4 20 -9 3 -21 0 -27
-6z"/>
<path d="M6245 7880 c-3 -5 -2 -10 4 -10 5 0 13 5 16 10 3 6 2 10 -4 10 -5 0
-13 -4 -16 -10z"/>
<path d="M6212 7738 c9 -19 18 -23 40 -20 46 7 37 24 -19 36 -31 7 -31 6 -21
-16z"/>
<path d="M4186 7624 c-53 -173 -65 -202 -84 -208 -9 -3 -48 -10 -87 -17 -93
-16 -115 -25 -115 -48 0 -34 51 -99 106 -135 l52 -35 -14 -63 c-40 -171 -51
-228 -44 -228 5 0 30 11 57 24 87 43 119 51 148 38 19 -9 25 -18 23 -35 -3
-19 -9 -22 -40 -21 -44 1 -47 -4 -14 -35 14 -14 22 -30 19 -41 -3 -11 4 -26
19 -40 26 -22 38 -90 17 -90 -6 0 -9 -7 -5 -15 3 -10 -3 -17 -19 -21 -29 -7
-29 -8 -13 -34 19 -30 -2 -46 -43 -31 -24 8 -35 8 -46 -1 -22 -18 -76 -88 -71
-93 2 -2 46 8 98 23 65 19 95 32 95 42 0 8 8 16 18 18 9 2 17 -1 17 -7 0 -6 9
-11 21 -11 27 0 19 -24 -9 -28 -18 -3 -20 -6 -10 -22 9 -14 9 -22 -2 -34 -18
-23 -11 -26 34 -16 34 8 41 6 62 -18 23 -26 23 -26 24 -5 0 38 15 33 48 -16
26 -38 32 -54 26 -75 -8 -31 -32 -45 -44 -26 -5 8 -16 15 -24 16 -9 1 -13 -2
-10 -8 4 -6 -2 -8 -12 -6 -12 2 -21 17 -27 41 -7 30 -12 35 -23 26 -8 -6 -20
-9 -28 -6 -10 4 -13 1 -9 -9 6 -16 -6 -18 -41 -4 -30 11 -32 8 -9 -26 15 -24
15 -28 -1 -61 l-17 -36 33 6 c27 4 36 0 52 -21 19 -24 19 -25 1 -38 -27 -20
-45 -17 -73 9 l-25 22 6 -42 c5 -39 3 -43 -31 -67 l-37 -26 30 0 c41 0 51 -9
60 -49 l7 -35 15 27 c16 31 25 33 43 12 10 -12 9 -20 -4 -39 -14 -22 -19 -24
-48 -16 -40 12 -44 8 -23 -24 17 -25 16 -27 -10 -61 l-27 -36 29 7 c15 3 35 8
43 10 10 2 23 -9 34 -27 l19 -32 -48 7 -47 8 27 -37 c24 -31 26 -39 16 -61
-15 -34 -16 -34 31 -29 30 3 48 -1 66 -15 21 -17 26 -18 39 -5 17 17 33 20 33
5 0 -5 5 -10 11 -10 6 0 9 7 5 15 -6 18 -1 19 25 4 11 -5 17 -14 14 -20 -4 -5
0 -16 9 -24 9 -10 17 -11 21 -5 4 6 9 8 13 6 4 -2 8 7 8 20 1 14 -4 24 -12 24
-7 0 -26 11 -41 25 -23 20 -26 26 -13 34 8 6 11 13 7 17 -4 4 -2 13 4 21 9 10
15 10 25 2 11 -9 14 -8 14 5 0 9 -5 16 -11 16 -7 0 -5 10 6 26 16 25 16 26 -4
19 -12 -4 -21 -2 -21 4 0 6 -9 11 -20 11 -13 0 -20 7 -20 20 0 25 -16 26 -29
3 -5 -10 -13 -14 -17 -10 -5 5 -2 12 5 16 10 7 4 13 -23 26 -43 21 -48 26 -35
45 6 10 9 11 9 3 0 -7 5 -13 10 -13 6 0 8 11 4 25 -5 19 0 30 23 49 16 15 22
25 14 26 -16 0 -48 35 -57 62 -3 11 -12 17 -20 14 -8 -3 -14 -4 -14 -3 4 25
41 112 50 117 21 13 60 -11 60 -36 0 -13 -4 -26 -10 -29 -13 -8 -13 -45 -1
-45 6 0 13 5 16 10 5 8 11 7 21 -1 23 -19 16 -37 -16 -44 -38 -8 -38 -19 0
-35 22 -9 31 -21 36 -46 l6 -33 26 24 c14 13 29 22 34 19 5 -3 19 -7 33 -10
20 -3 23 -1 18 13 -3 10 -11 24 -17 32 -9 12 -7 13 7 8 15 -6 17 -3 12 13 -3
10 -1 29 5 41 10 17 9 23 -1 30 -9 6 1 9 29 9 23 0 42 3 42 6 0 3 -13 16 -30
30 -25 21 -28 29 -20 50 6 14 10 32 10 40 0 13 -3 13 -22 0 -30 -21 -47 -20
-25 1 16 16 15 18 -13 29 -35 15 -38 28 -11 51 11 9 18 20 16 24 -3 4 7 9 20
12 14 2 28 0 31 -4 15 -24 21 -5 8 26 -20 48 -18 65 13 97 l27 28 -42 0 c-35
0 -44 4 -54 24 -6 14 -8 31 -5 38 3 7 53 30 111 52 93 33 106 41 106 61 0 20
-12 28 -81 55 l-82 31 -33 -32 c-27 -26 -37 -30 -46 -21 -10 10 -10 17 1 34
10 16 10 22 1 28 -18 11 -17 18 6 35 23 16 22 41 -5 109 -13 33 -8 56 13 56 8
0 16 13 18 30 3 20 0 30 -8 30 -7 0 -19 3 -28 6 -11 4 -16 1 -16 -10 0 -42
-38 -3 -47 47 -4 29 -2 37 16 47 17 9 20 15 11 25 -8 10 -3 19 20 39 18 14 36
26 41 26 5 0 9 11 9 24 0 28 42 66 73 66 15 0 17 3 8 13 -6 8 -8 16 -5 20 13
12 -17 45 -47 51 -53 10 -61 22 -42 67 8 21 12 46 9 56 -4 9 -3 19 2 22 5 3
12 18 15 33 6 23 4 25 -13 21 -11 -3 -20 -12 -20 -19 0 -17 -1 -17 -34 -4 -19
7 -26 17 -26 35 0 30 -11 32 -28 4 -10 -16 -19 -19 -43 -14 -33 7 -37 0 -13
-26 19 -21 9 -43 -17 -36 -33 9 -53 -15 -45 -57 4 -21 10 -44 13 -52 3 -8 1
-14 -5 -14 -9 0 -62 111 -62 131 0 7 12 8 30 4 36 -8 40 7 8 29 -17 12 -24 13
-29 4 -5 -8 -11 -4 -18 12 -5 14 -21 38 -34 54 l-24 30 -37 -120z m274 -54 c0
-5 -4 -10 -10 -10 -5 0 -10 5 -10 10 0 6 5 10 10 10 6 0 10 -4 10 -10z m30
-35 c7 -9 19 -14 27 -11 8 3 13 -2 13 -12 0 -12 -9 -18 -28 -19 -32 -2 -52 13
-52 38 0 23 23 25 40 4z m-214 -516 c13 -12 20 -28 17 -36 -5 -11 -1 -14 13
-10 20 6 64 -23 64 -42 0 -6 6 -11 13 -11 8 0 22 -8 31 -19 16 -17 16 -19 -6
-24 -15 -4 -26 -1 -31 9 -6 11 -12 12 -22 4 -14 -11 -17 -8 -29 24 -4 13 -2
17 8 13 8 -3 17 -3 20 0 3 4 -25 16 -64 29 -110 35 -104 30 -83 59 22 30 40
31 69 4z m34 -99 c0 -19 -11 -26 -23 -14 -8 8 3 34 14 34 5 0 9 -9 9 -20z
m140 -79 c0 -13 -28 -22 -35 -11 -3 4 1 11 7 13 20 8 28 8 28 -2z m-100 -19
c0 -5 -10 -17 -22 -28 -19 -15 -20 -16 -9 -1 10 12 10 17 2 17 -7 0 -9 5 -6
10 8 12 35 13 35 2z m181 -67 c0 -5 -9 -11 -21 -13 -15 -3 -18 1 -14 13 7 17
35 17 35 0z m-161 -145 c0 -3 -9 -11 -19 -17 -13 -8 -18 -19 -14 -34 5 -16 3
-20 -6 -15 -15 10 -33 55 -26 66 6 9 65 9 65 0z m170 -199 c0 -5 -7 -14 -15
-21 -13 -10 -15 -9 -15 9 0 12 6 21 15 21 8 0 15 -4 15 -9z m-180 -517 c0 -14
-3 -14 -15 -4 -8 7 -15 14 -15 16 0 2 7 4 15 4 8 0 15 -7 15 -16z"/>
<path d="M6274 7519 c-19 -32 -25 -35 -58 -31 -22 3 -36 0 -36 -7 0 -6 4 -11
10 -11 6 0 8 -23 5 -55 -5 -58 -2 -62 40 -43 24 11 29 9 45 -11 21 -29 40 -20
40 18 0 16 7 34 15 41 13 11 12 15 -7 32 -13 11 -24 35 -27 61 l-6 42 -21 -36z"/>
<path d="M6142 7458 c3 -7 12 -14 21 -16 12 -2 15 1 11 12 -7 19 -38 22 -32 4z"/>
<path d="M6208 7333 c-10 -2 -18 -13 -18 -24 0 -11 5 -17 10 -14 6 3 10 1 10
-4 0 -25 15 -8 17 19 1 17 1 29 0 29 -1 -1 -10 -3 -19 -6z"/>
<path d="M6200 7260 c0 -5 5 -10 10 -10 6 0 10 5 10 10 0 6 -4 10 -10 10 -5 0
-10 -4 -10 -10z"/>
<path d="M6265 7140 c-3 -5 -1 -10 4 -10 6 0 11 5 11 10 0 6 -2 10 -4 10 -3 0
-8 -4 -11 -10z"/>
<path d="M5991 7111 c-7 -5 -11 -13 -7 -19 3 -6 1 -12 -6 -14 -8 -3 -8 -9 -1
-23 10 -17 11 -17 23 4 8 16 18 21 31 18 27 -7 31 6 8 26 -22 19 -28 20 -48 8z"/>
<path d="M6112 7047 c-14 -17 -36 -68 -37 -87 0 -11 -12 -15 -48 -14 -26 0
-47 -3 -47 -8 0 -4 -8 -8 -17 -8 -15 -1 -15 -3 5 -19 32 -27 27 -47 -15 -64
l-38 -16 42 -17 c33 -13 43 -23 49 -47 7 -31 -13 -57 -43 -57 -10 0 -11 -4 -1
-19 6 -10 17 -17 24 -14 19 7 35 -31 28 -66 -7 -34 0 -39 23 -16 8 8 19 13 24
9 6 -3 16 -1 24 6 10 8 19 8 34 1 28 -16 33 -14 21 8 -15 28 -13 33 10 26 15
-5 18 -3 14 9 -3 8 -15 16 -26 18 -20 3 -20 3 2 31 l21 27 -39 0 c-27 0 -42 5
-46 15 -8 22 16 28 68 17 34 -7 43 -6 39 3 -8 22 15 27 46 10 17 -8 32 -15 35
-15 3 0 -4 21 -14 46 -11 25 -20 51 -20 59 0 7 21 31 46 55 l46 42 -64 -3
c-35 -2 -69 0 -77 5 -7 5 -22 28 -33 52 -21 49 -21 49 -36 31z"/>
<path d="M6246 6713 c4 -15 8 -30 10 -32 2 -2 -13 -16 -34 -30 l-37 -26 43 -3
c38 -3 45 -7 60 -38 l16 -35 11 32 c9 26 19 35 50 43 l39 11 -28 18 c-24 16
-26 22 -20 54 l7 36 -30 -18 c-28 -16 -32 -16 -62 -1 l-32 17 7 -28z"/>
<path d="M6200 6440 c-13 -9 -13 -11 0 -20 23 -15 29 -12 23 10 -3 11 -6 20
-7 20 0 0 -8 -5 -16 -10z"/>
<path d="M6287 6356 c-4 -9 -15 -12 -34 -8 -28 5 -28 5 -9 -17 16 -17 17 -25
8 -46 -6 -14 -16 -25 -22 -25 -26 0 -123 54 -127 71 -3 11 -9 19 -13 19 -10 0
-19 -84 -9 -88 4 -2 5 -10 2 -18 -6 -17 13 -19 20 -1 6 14 46 -30 47 -51 0 -7
-21 -33 -47 -58 l-48 -45 80 2 c75 2 80 1 83 -19 2 -12 -2 -22 -8 -22 -8 0 -8
-6 0 -20 9 -16 8 -20 -5 -20 -9 0 -19 -8 -22 -17 -7 -19 -28 -43 -37 -43 -3 0
-6 11 -6 24 0 13 -3 38 -6 55 -6 30 -8 31 -25 15 -14 -12 -28 -14 -61 -9 -34
6 -40 4 -31 -5 6 -7 9 -19 6 -26 -3 -8 1 -14 11 -14 9 0 16 -4 16 -10 0 -12
-22 -9 -32 5 -5 6 -11 6 -19 -2 -9 -9 -23 -8 -60 7 -27 10 -49 16 -49 13 0 -2
20 -33 45 -67 l44 -62 -25 -37 c-13 -20 -28 -37 -32 -37 -11 0 -52 29 -84 58
-27 25 -28 25 -28 4 0 -11 9 -83 20 -158 16 -110 18 -139 8 -146 -7 -4 -61
-33 -120 -63 -59 -31 -109 -59 -112 -64 -3 -4 11 -13 32 -19 20 -6 70 -20 111
-32 l73 -21 -19 -22 c-42 -47 -40 -49 28 -46 l63 4 18 -75 c9 -41 18 -91 20
-110 1 -19 7 -45 14 -58 l11 -22 15 22 c14 21 16 21 32 5 23 -22 36 -22 36 2
0 23 66 40 84 20 7 -7 7 -10 0 -6 -11 6 -19 -2 -67 -66 -15 -20 -35 -37 -44
-37 -12 0 -13 -3 -4 -14 6 -8 10 -20 9 -27 -4 -18 48 -25 67 -9 10 8 15 8 21
-1 4 -7 2 -15 -4 -17 -24 -8 -11 -18 17 -14 20 3 28 8 24 18 -3 8 -12 14 -20
14 -12 0 -14 7 -9 30 4 24 2 30 -11 30 -14 0 -15 2 -4 13 10 10 18 5 41 -23
22 -26 30 -30 30 -17 0 19 15 23 25 7 10 -16 19 -12 31 15 11 23 11 24 -10 13
-18 -10 -19 -9 -8 4 9 11 10 18 2 23 -15 9 -12 25 5 32 9 3 22 -2 29 -13 13
-17 14 -17 19 2 3 10 8 40 12 66 3 26 12 54 20 61 7 8 15 25 17 38 2 18 11 25
35 29 25 4 30 8 24 19 -5 8 -7 20 -5 26 3 7 -4 15 -15 18 -20 5 -39 33 -29 42
2 3 69 14 149 26 79 12 147 24 151 28 4 3 -53 44 -127 89 -86 53 -135 90 -135
100 0 10 5 58 11 107 9 76 14 93 35 110 29 25 31 41 4 48 -11 3 -20 12 -20 21
0 19 -4 20 -30 4 -15 -10 -22 -10 -32 0 -13 13 -21 145 -12 204 6 37 6 37 65
44 33 4 61 10 64 13 2 4 -23 22 -55 39 -55 30 -58 34 -58 70 0 20 7 45 15 55
10 10 12 17 5 17 -7 0 -12 5 -12 10 0 9 -36 50 -44 50 -2 0 -6 -6 -9 -14z
m-62 -416 c3 -5 1 -19 -5 -30 -8 -16 -17 -19 -33 -14 -37 11 -44 24 -23 40 23
16 52 18 61 4z m-160 -181 c10 -30 0 -33 -35 -13 -26 16 -28 20 -13 26 31 12
41 9 48 -13z m84 -556 c10 -10 31 -41 46 -70 25 -43 27 -54 16 -67 -7 -9 -21
-16 -30 -15 -9 0 -11 3 -5 5 9 4 8 13 -3 34 -17 35 -33 47 -33 26 0 -19 -13
-20 -43 -4 -34 18 -49 36 -45 56 4 18 24 20 67 6 21 -6 22 -5 12 14 -19 36
-12 43 18 15z m33 -205 c-9 -9 -12 -7 -12 12 0 19 3 21 12 12 9 -9 9 -15 0
-24z"/>
<path d="M6010 6165 c0 -7 -4 -15 -9 -17 -5 -1 -4 -11 3 -20 9 -12 20 -15 38
-10 21 6 24 11 18 28 -10 24 -50 40 -50 19z"/>
<path d="M4530 6026 c0 -27 12 -45 26 -39 19 7 18 39 -2 47 -22 8 -24 8 -24
-8z"/>
<path d="M4525 5817 c-4 -12 -8 -30 -9 -40 -1 -10 -8 -22 -16 -28 -14 -10 -7
-19 17 -21 5 -1 13 -8 20 -17 11 -14 12 -14 13 2 0 10 8 17 20 17 17 0 19 3 8
19 -8 14 -9 23 -1 33 15 19 1 53 -23 55 -15 2 -24 -5 -29 -20z"/>
<path d="M4565 5597 c-16 -26 -35 -45 -42 -43 -7 3 -15 1 -18 -4 -9 -15 -58
-12 -98 5 -45 19 -42 19 -42 -9 0 -13 3 -22 8 -19 4 2 7 -7 7 -20 0 -13 11
-45 24 -72 24 -46 24 -50 9 -79 -9 -17 -18 -25 -20 -18 -3 6 -17 12 -31 13
-28 0 -76 17 -54 18 18 1 15 26 -7 45 -19 17 -20 17 -35 -13 -9 -17 -25 -35
-36 -41 -12 -7 -20 -21 -20 -38 0 -22 6 -29 35 -38 31 -10 34 -9 37 10 2 13
12 22 26 24 24 4 29 -7 10 -26 -9 -9 -7 -12 10 -12 11 0 25 -8 31 -17 9 -17
10 -17 16 0 4 9 15 17 25 17 11 0 22 5 25 10 13 22 52 10 65 -19 13 -32 66
-53 56 -22 -4 9 3 5 13 -9 11 -14 27 -34 35 -45 14 -19 15 -15 17 50 1 39 2
77 3 85 0 8 29 25 64 39 l62 24 -52 29 c-29 16 -57 33 -63 39 -5 5 -14 49 -20
97 l-10 87 -30 -48z"/>
<path d="M4387 5413 c-4 -3 -7 -11 -7 -17 0 -6 5 -5 12 2 6 6 9 14 7 17 -3 3
-9 2 -12 -2z"/>
<path d="M4178 5144 l-3 -69 -70 -37 -69 -36 59 -7 c95 -11 95 -10 95 -63 0
-69 12 -80 42 -40 57 74 88 96 88 63 0 -14 4 -14 36 0 20 8 48 15 62 15 25 0
25 1 -18 45 l-44 45 18 35 c11 19 27 35 36 35 12 0 17 8 16 28 -1 27 -4 29
-38 26 -23 -1 -48 -12 -65 -28 -32 -30 -45 -32 -63 -11 -9 10 -9 15 -1 15 6 0
11 5 11 11 0 6 -9 8 -21 4 -14 -5 -28 0 -44 15 l-24 23 -3 -69z"/>
<path d="M4460 5156 c0 -9 5 -16 10 -16 6 0 10 4 10 9 0 6 -4 13 -10 16 -5 3
-10 -1 -10 -9z"/>
<path d="M4510 5042 c0 -25 -11 -34 -26 -21 -8 7 -14 7 -19 -1 -3 -5 2 -13 12
-17 10 -4 23 -14 30 -22 10 -14 12 -14 18 2 4 9 13 17 20 17 26 0 28 23 4 41
-30 23 -39 24 -39 1z"/>
<path d="M6083 4856 c-7 -14 -18 -17 -37 -14 -14 3 -26 1 -26 -3 0 -5 -7 -9
-16 -9 -13 0 -12 -5 5 -26 12 -15 21 -37 21 -50 0 -25 -15 -33 -23 -11 -4 8
-6 8 -6 -2 -1 -8 -8 -23 -17 -33 -16 -17 -15 -19 19 -33 44 -18 58 -19 52 -2
-4 8 7 13 30 15 26 1 37 -3 42 -15 4 -9 1 -19 -5 -21 -7 -2 -12 -7 -12 -11 0
-17 66 13 67 30 1 11 -3 16 -11 13 -25 -10 -26 25 -1 45 14 10 25 22 25 26 0
4 9 20 21 36 23 32 22 33 -16 19 -40 -15 -74 -2 -89 34 -11 28 -13 29 -23 12z"/>
<path d="M4360 4786 c-5 -13 -18 -27 -29 -31 -12 -4 -18 -12 -14 -21 10 -26
-21 -14 -60 24 l-39 37 6 -52 c4 -31 3 -53 -3 -53 -15 0 -22 -32 -10 -46 9
-11 8 -14 -4 -14 -10 0 -13 -6 -10 -19 4 -16 -6 -25 -46 -45 -28 -15 -51 -30
-51 -34 0 -5 21 -13 48 -18 30 -6 46 -14 44 -23 -2 -9 6 -11 29 -6 35 8 49 -4
49 -41 0 -15 -8 -24 -26 -28 l-27 -7 20 -22 c11 -12 26 -32 32 -44 6 -13 19
-23 27 -23 9 0 29 -9 45 -21 l30 -21 -17 43 c-17 41 -17 42 5 61 44 35 77 12
68 -48 l-6 -36 26 17 c24 16 35 16 78 0 11 -5 17 -4 12 0 -4 5 -1 15 7 24 13
14 22 69 16 96 -5 23 -5 41 1 50 3 6 0 20 -6 33 -11 21 -14 22 -27 8 -14 -13
-18 -12 -37 8 -27 29 -27 42 5 62 17 12 21 19 13 25 -16 10 -5 91 15 104 12 8
10 14 -17 37 -30 28 -32 28 -39 8 -4 -11 -14 -20 -23 -20 -17 0 -55 35 -55 50
0 19 -21 10 -30 -14z m84 -325 c3 -4 3 -11 0 -14 -8 -8 -34 3 -34 14 0 11 27
12 34 0z m66 -5 c0 -3 -4 -8 -10 -11 -5 -3 -10 -1 -10 4 0 6 5 11 10 11 6 0
10 -2 10 -4z"/>
<path d="M6222 4665 c6 -14 16 -25 22 -25 17 -1 -34 -40 -52 -40 -8 0 -24 7
-34 17 -27 25 -32 10 -10 -34 l20 -38 -29 -31 -30 -31 42 1 c37 1 44 -2 48
-22 9 -34 26 -32 29 5 3 29 7 32 47 39 32 4 42 10 38 20 -3 8 -10 14 -17 13
-6 -1 -18 1 -27 5 -14 6 -15 14 -8 44 12 54 12 56 -21 80 l-30 22 12 -25z
m-12 -155 c0 -5 -5 -10 -11 -10 -5 0 -7 5 -4 10 3 6 8 10 11 10 2 0 4 -4 4
-10z"/>
<path d="M6115 4330 c-19 -21 -28 -22 -82 -5 -21 7 -21 5 -10 -18 6 -14 15
-23 18 -21 4 2 12 -3 19 -11 10 -12 10 -18 0 -30 -7 -8 -18 -15 -24 -15 -6 0
-19 -7 -29 -14 -16 -13 -16 -15 10 -45 15 -17 34 -31 43 -30 10 0 7 4 -7 11
-14 7 -23 20 -23 33 0 35 43 21 68 -23 l22 -37 0 31 c0 22 9 39 32 59 l31 28
-21 17 c-13 11 -22 31 -24 55 l-3 37 -20 -22z"/>
<path d="M4428 4253 c-16 -20 -28 -44 -28 -55 0 -21 -30 -24 -48 -6 -18 18
-32 -6 -32 -54 0 -20 -4 -40 -10 -43 -5 -3 -10 -1 -10 5 0 8 -6 8 -20 0 -15
-8 -19 -17 -14 -34 5 -20 0 -26 -35 -40 -33 -13 -50 -14 -88 -6 -25 6 -47 9
-49 8 -1 -2 9 -29 23 -61 26 -57 26 -58 7 -80 -10 -12 -25 -32 -31 -44 -12
-21 -10 -23 22 -29 19 -3 46 -3 60 0 18 5 27 1 35 -14 16 -30 5 -70 -61 -207
l-58 -123 -260 0 c-144 0 -261 -3 -261 -7 0 -5 90 -70 200 -146 110 -76 200
-140 200 -141 0 -1 -29 -85 -65 -186 -59 -166 -74 -220 -61 -220 3 0 91 46
197 101 168 88 194 99 204 86 10 -15 13 -15 27 -1 20 20 44 13 85 -26 18 -16
39 -30 48 -30 26 0 134 -67 161 -100 24 -28 131 -86 141 -76 8 7 -27 118 -48
153 -22 35 -79 230 -79 268 0 16 6 25 15 25 8 0 15 4 15 10 0 5 44 39 98 74
104 69 210 148 211 156 1 3 -56 15 -126 28 -70 12 -131 26 -136 31 -5 5 -4 40
2 81 7 40 10 74 8 76 -2 3 -27 -23 -56 -56 -54 -62 -91 -78 -91 -40 0 21 -19
27 -36 10 -8 -8 -18 -5 -34 8 l-23 19 49 71 c27 39 51 67 54 62 3 -5 12 -5 19
-1 7 5 43 1 82 -9 38 -10 69 -16 69 -13 0 3 -22 36 -50 73 -27 37 -50 73 -50
79 0 7 18 44 41 83 22 38 39 71 37 73 -2 3 -35 -5 -72 -18 -67 -21 -68 -21
-82 -2 -17 23 -19 44 -2 27 18 -18 30 -14 23 7 -3 11 -1 22 5 26 6 3 8 11 5
16 -4 5 6 25 21 44 l26 35 -22 0 c-22 0 -22 1 -7 18 10 10 14 22 11 25 -4 4
-1 13 6 22 11 13 7 15 -29 15 -35 0 -43 4 -51 25 -8 20 -45 66 -52 65 -2 -1
-15 -17 -30 -37z m22 -37 c0 -3 -4 -8 -10 -11 -5 -3 -10 -1 -10 4 0 6 5 11 10
11 6 0 10 -2 10 -4z m8 -84 c2 -7 -2 -10 -12 -6 -10 4 -16 1 -16 -7 0 -7 -2
-10 -5 -7 -3 3 -3 13 1 22 7 18 25 17 32 -2z m-77 -372 c10 -6 19 -21 18 -33
0 -12 -3 -17 -5 -10 -3 7 -12 9 -20 6 -8 -3 -14 -1 -14 5 0 6 -3 17 -6 26 -7
19 0 20 27 6z m-111 -790 c0 -5 -5 -10 -11 -10 -5 0 -7 5 -4 10 3 6 8 10 11
10 2 0 4 -4 4 -10z"/>
<path d="M8524 4190 c-16 -51 -36 -95 -44 -100 -8 -4 -45 -10 -83 -13 l-67 -6
-37 72 c-40 80 -35 83 -68 -34 l-16 -56 -56 -12 c-31 -6 -70 -11 -87 -11 l-31
0 31 -18 c109 -60 144 -104 90 -114 -37 -7 -53 6 -35 28 13 16 12 17 -14 12
-19 -4 -30 -1 -34 9 -3 8 -13 11 -24 8 -13 -5 -22 3 -35 27 l-17 33 -10 -25
-10 -25 -7 25 c-5 14 -8 41 -9 62 -1 30 -4 35 -20 31 -11 -3 -35 -22 -54 -44
-43 -48 -77 -51 -156 -14 -30 14 -56 24 -58 21 -2 -2 7 -32 21 -67 14 -35 20
-57 13 -49 -15 18 -53 15 -61 -6 -3 -8 1 -17 9 -20 17 -7 20 -30 5 -39 -5 -3
-18 2 -28 12 -53 53 -56 52 -48 -3 6 -47 4 -53 -18 -68 -14 -9 -32 -16 -40
-16 -7 0 -16 -7 -20 -15 -4 -12 3 -15 32 -15 51 0 65 -12 78 -62 l10 -43 22
43 c28 52 45 53 99 6 l42 -36 -29 -79 c-16 -43 -28 -79 -26 -79 3 0 36 18 75
41 l70 40 63 -50 c34 -28 63 -49 65 -47 2 2 -3 35 -12 75 -8 40 -15 76 -15 81
0 13 52 43 59 33 11 -18 51 -22 66 -7 17 17 16 17 45 -71 20 -59 25 -67 34
-51 63 104 60 102 104 98 39 -4 41 -6 44 -40 2 -21 -2 -62 -9 -92 -7 -30 -21
-95 -32 -145 -11 -49 -18 -91 -16 -93 3 -4 88 54 205 140 24 18 58 43 75 56
l32 23 100 -63 c55 -35 118 -74 139 -88 21 -14 51 -31 67 -38 27 -11 27 -11
21 16 -3 15 -24 83 -46 152 -22 69 -41 131 -44 138 -2 9 4 8 26 -3 38 -20 43
-19 35 6 -6 18 -4 20 14 14 12 -3 21 -2 21 3 0 6 7 13 15 16 15 5 28 -7 94
-84 l21 -25 -2 44 c-1 31 3 47 15 56 9 7 17 20 17 29 0 9 8 16 20 16 11 0 20
7 20 15 0 8 8 15 18 15 16 1 16 2 -1 14 -10 8 -19 18 -20 22 -1 5 -17 9 -36
10 -69 2 -81 64 -22 112 46 37 57 39 64 12 8 -30 22 -24 32 13 7 22 17 33 33
35 29 4 51 42 25 42 -37 0 -63 -13 -63 -31 0 -21 -16 -34 -25 -19 -3 5 -17 10
-30 10 -18 0 -23 4 -19 15 5 11 -1 14 -22 13 -16 -1 -32 -7 -36 -13 -5 -6 -8
-3 -8 8 0 21 -13 22 -30 2 -9 -11 -17 -12 -30 -5 -26 14 -29 13 -23 -10 5 -18
0 -20 -46 -20 -49 0 -53 2 -62 30 -13 35 -24 38 -39 10 -19 -35 -40 -25 -33
16 5 31 3 35 -13 32 -14 -2 -18 2 -15 17 3 20 3 20 -18 1 -30 -27 -38 -16 -96
124 -26 63 -48 116 -50 118 -1 2 -16 -38 -31 -88z m-69 -195 c-14 -36 -25 -68
-25 -70 0 -9 -29 -5 -34 4 -10 15 13 64 47 99 17 17 32 32 34 32 1 0 -9 -29
-22 -65z m-768 -71 c-3 -3 -12 -4 -19 -1 -8 3 -5 6 6 6 11 1 17 -2 13 -5z
m391 -122 c15 -10 -26 -32 -59 -32 -17 0 -18 3 -9 20 11 20 45 26 68 12z"/>
<path d="M6040 4260 c0 -5 5 -10 11 -10 5 0 7 5 4 10 -3 6 -8 10 -11 10 -2 0
-4 -4 -4 -10z"/>
<path d="M6265 4190 c-3 -11 -11 -20 -16 -20 -6 0 -8 -4 -4 -9 5 -9 65 -12 65
-4 0 3 -9 16 -19 29 -19 24 -20 24 -26 4z"/>
<path d="M6875 4147 c-30 -87 -38 -119 -36 -159 2 -47 2 -47 -37 -57 -21 -6
-47 -20 -57 -30 -9 -11 -41 -25 -70 -31 -30 -6 -59 -18 -65 -26 -22 -26 -43
-17 -38 16 l5 30 -27 -25 c-21 -20 -33 -24 -58 -19 -21 4 -32 3 -32 -5 0 -6 5
-11 10 -11 18 0 10 -43 -12 -67 l-22 -24 41 7 c35 5 43 3 54 -14 13 -21 14
-20 26 8 9 23 19 30 40 30 15 0 39 3 53 6 20 4 22 3 10 -5 -13 -9 -12 -11 3
-11 10 0 15 -4 12 -10 -3 -5 -16 -10 -27 -10 -17 0 -13 -6 20 -29 53 -39 56
-46 38 -83 -23 -45 -20 -49 19 -32 19 7 38 14 43 14 5 0 7 -32 4 -72 l-5 -72
46 38 47 38 10 -26 c8 -21 16 -26 44 -26 18 0 39 7 46 15 11 14 17 13 47 -5
19 -11 36 -20 38 -20 2 0 -5 20 -16 45 -22 49 -19 59 27 120 21 28 27 30 75
26 46 -3 53 -6 62 -31 10 -27 11 -28 27 -8 17 22 65 32 89 18 8 -4 25 -4 37 0
15 6 24 5 26 -2 2 -6 10 -9 17 -7 8 3 4 14 -13 34 -14 17 -26 35 -26 42 0 15
69 55 82 47 6 -4 5 -10 -3 -15 -12 -8 -11 -11 1 -19 24 -16 32 -12 24 13 -5
12 -7 37 -6 55 1 23 -2 32 -13 32 -8 0 -24 5 -34 12 -11 6 -26 8 -37 3 -11 -4
-25 -7 -31 -6 -7 1 -25 -5 -40 -12 -26 -14 -26 -15 -5 -21 12 -4 22 -12 22
-17 0 -5 6 -9 14 -9 16 0 41 -28 33 -36 -14 -14 -57 7 -63 31 -3 14 -12 25
-19 25 -18 0 -77 88 -64 95 5 4 18 3 29 0 18 -6 19 -4 9 19 -10 20 -8 32 7 63
10 21 19 52 19 68 1 17 4 40 8 52 8 21 7 21 -38 8 -25 -8 -52 -12 -60 -9 -8 3
-38 -6 -67 -20 -28 -14 -57 -26 -63 -26 -6 0 -26 16 -45 35 -19 19 -39 35 -45
35 -6 0 -28 9 -48 19 -27 14 -39 16 -42 8z"/>
<path d="M6010 4126 c0 -9 9 -21 19 -28 10 -6 17 -17 14 -25 -3 -7 2 -20 11
-28 9 -9 16 -12 16 -7 0 18 33 23 49 7 15 -15 14 -18 -9 -38 -26 -24 -37 -59
-15 -51 7 3 16 1 20 -5 3 -7 -2 -11 -14 -11 -11 0 -22 -9 -26 -20 -4 -11 -15
-20 -27 -20 -18 0 -19 -2 -7 -17 8 -9 13 -25 11 -35 -3 -16 0 -18 15 -10 12 7
25 7 37 0 16 -9 18 -8 13 11 -4 16 2 25 23 37 27 16 27 17 9 35 -29 29 -19 72
12 53 7 -4 27 -8 45 -9 30 -2 32 0 22 18 -5 11 -8 40 -5 64 3 30 1 43 -6 40
-7 -2 -19 6 -29 17 -15 19 -17 20 -23 4 -9 -23 -65 -25 -65 -3 0 11 -7 13 -28
9 -19 -4 -34 0 -45 11 -15 14 -17 15 -17 1z"/>
<path d="M6000 4040 c0 -5 5 -12 11 -16 6 -3 9 -17 6 -31 -2 -13 -2 -21 1 -18
3 2 11 0 17 -5 9 -8 13 -4 13 14 0 14 -7 27 -15 30 -8 3 -12 10 -9 15 3 5 -1
11 -9 15 -8 3 -15 1 -15 -4z"/>
<path d="M6250 3968 c0 -9 -8 -21 -17 -27 -15 -8 -16 -12 -5 -22 15 -16 16
-49 0 -49 -6 0 -4 -8 6 -19 10 -11 14 -25 9 -37 -6 -17 -5 -18 12 -4 10 8 25
14 34 12 13 -2 16 6 16 42 0 24 -3 48 -7 52 -4 4 -3 13 3 21 9 10 7 13 -6 13
-10 0 -24 8 -31 18 -12 16 -13 16 -14 0z"/>
<path d="M9178 3785 c-4 -21 -1 -25 17 -25 14 0 25 7 28 20 3 11 1 17 -4 14
-6 -3 -16 -1 -23 5 -11 9 -15 6 -18 -14z"/>
<path d="M6324 3767 c-9 -24 -35 -29 -55 -11 -18 16 -19 16 -19 -11 0 -16 -7
-37 -17 -47 -15 -17 -15 -18 5 -18 12 0 27 -10 33 -22 l12 -23 10 23 c9 19 31
28 60 23 16 -2 6 18 -13 24 -22 7 -26 35 -8 53 6 6 9 15 5 18 -4 4 -9 0 -13
-9z"/>
<path d="M9094 3596 c-9 -20 -7 -26 17 -46 23 -17 27 -26 19 -40 -7 -13 -6
-20 5 -24 8 -3 15 -11 15 -17 0 -8 -4 -8 -15 1 -27 22 -17 -9 11 -33 22 -19
25 -27 19 -64 -7 -48 4 -56 32 -23 26 30 72 25 86 -10 3 -9 6 -4 6 13 1 15 4
27 9 27 4 0 13 12 19 27 11 23 10 29 -8 46 -15 14 -23 16 -29 8 -9 -15 -63 -3
-57 13 2 6 16 10 31 8 14 -1 26 2 26 8 0 6 5 8 10 5 13 -8 12 0 -8 60 -9 28
-20 49 -24 48 -5 -2 -20 -3 -34 -3 -24 0 -24 -1 -10 -22 22 -30 20 -41 -4 -28
-11 6 -20 21 -20 33 0 22 -1 22 -21 -3 l-21 -25 6 26 c5 22 2 28 -17 33 -31 8
-31 8 -43 -18z m136 -81 c0 -9 -6 -12 -16 -8 -13 5 -13 7 -2 14 17 11 18 11
18 -6z m24 -96 c-3 -5 -10 -7 -15 -3 -5 3 -7 10 -3 15 3 5 10 7 15 3 5 -3 7
-10 3 -15z"/>
<path d="M8970 3531 c0 -6 7 -26 16 -43 11 -22 13 -33 5 -41 -20 -20 -13 -40
12 -33 16 4 26 -1 36 -16 13 -21 14 -21 27 10 7 18 20 32 29 32 21 0 19 13 -5
28 -11 7 -20 23 -20 37 0 27 -17 34 -26 10 -8 -21 -24 -19 -51 7 -13 12 -23
16 -23 9z"/>
<path d="M9083 3505 c-9 -24 1 -27 15 -5 8 13 8 20 2 20 -6 0 -13 -7 -17 -15z"/>
<path d="M8930 3429 c0 -5 5 -7 10 -4 6 3 10 8 10 11 0 2 -4 4 -10 4 -5 0 -10
-5 -10 -11z"/>
<path d="M9110 3415 c0 -8 7 -15 16 -15 14 0 14 3 4 15 -7 8 -14 15 -16 15 -2
0 -4 -7 -4 -15z"/>
<path d="M9018 3359 c-4 -22 1 -34 15 -44 24 -16 41 -10 33 12 -4 9 -1 22 5
29 9 12 9 13 -3 9 -9 -4 -22 1 -31 9 -13 14 -15 12 -19 -15z"/>
<path d="M9243 3269 c-19 -32 -22 -32 -98 -13 -24 6 -27 4 -22 -11 5 -13 3
-16 -8 -12 -8 4 -17 2 -20 -4 -4 -5 -10 -7 -14 -4 -5 2 -8 -6 -8 -19 0 -15 6
-26 18 -29 18 -5 18 -8 4 -40 -14 -34 -14 -36 8 -43 12 -5 28 -7 35 -6 6 2 12
-4 12 -13 0 -9 -4 -13 -10 -10 -5 3 -7 0 -5 -8 3 -7 -5 -19 -19 -26 -14 -8
-22 -19 -19 -28 5 -12 9 -12 28 1 15 10 26 11 33 4 7 -7 15 6 27 41 12 38 22
51 36 51 24 0 24 -2 0 -48 -39 -75 -77 -119 -102 -116 -13 1 -29 3 -36 3 -7 1
-10 8 -7 16 5 11 0 14 -20 13 -14 -1 -26 -8 -26 -16 0 -9 -10 -11 -32 -8 -18
3 -54 8 -80 11 -60 8 -71 23 -128 178 -42 113 -64 158 -73 147 -2 -3 -43 -126
-91 -275 -48 -148 -90 -272 -93 -275 -2 -3 -9 -5 -14 -5 -5 0 -17 -16 -27 -35
-13 -27 -27 -37 -62 -48 -25 -7 -58 -11 -75 -9 -16 2 -35 -1 -41 -8 -14 -13
-168 -50 -250 -59 -46 -6 -54 -3 -100 29 l-49 35 -3 -45 c-3 -36 -7 -45 -22
-45 -10 0 -23 6 -27 14 -5 9 -18 12 -34 9 -26 -5 -26 -6 -12 -34 16 -33 12
-59 -10 -59 -10 0 -13 -8 -9 -25 3 -19 0 -25 -13 -25 -14 0 -15 -3 -5 -15 9
-11 17 -12 32 -4 15 8 24 7 39 -7 25 -22 32 -14 19 21 -7 18 -15 25 -25 21
-20 -7 -19 18 1 49 19 30 35 31 57 7 19 -21 13 -32 -15 -32 -10 0 -18 -4 -18
-10 0 -13 6 -13 30 0 16 8 19 5 25 -20 8 -39 3 -93 -10 -102 -17 -13 -53 -9
-69 7 -20 20 -33 19 -46 -5 -6 -11 -15 -18 -20 -15 -5 3 -11 1 -14 -4 -8 -13
4 -42 15 -35 5 3 9 3 9 0 0 -3 -39 -26 -87 -50 -49 -25 -83 -45 -78 -46 6 0
48 -7 95 -16 47 -8 121 -21 165 -28 l80 -12 26 -142 c15 -79 29 -145 31 -147
4 -4 119 156 180 249 5 8 17 6 38 -6 16 -9 30 -13 30 -8 0 6 16 10 35 10 33 0
35 -2 35 -32 0 -17 -23 -126 -51 -242 -28 -116 -54 -222 -57 -235 -3 -17 65
37 248 197 l252 220 62 -33 c33 -18 141 -76 238 -129 181 -98 214 -110 204
-78 -3 9 -30 106 -61 215 -48 170 -55 207 -52 265 2 49 5 61 11 45 5 -13 12
-21 15 -18 9 5 7 33 -4 58 -5 13 -2 22 11 32 61 44 60 43 42 57 -10 7 -14 18
-10 23 10 14 99 85 106 85 7 0 128 -92 163 -123 13 -11 26 -18 29 -14 3 3 -3
62 -15 130 -12 69 -21 136 -21 149 0 20 20 33 146 96 81 40 144 75 142 77 -3
4 -186 39 -313 60 -30 5 -31 7 -65 141 l-34 136 23 18 24 18 -34 7 c-47 10
-59 22 -59 61 0 42 -13 43 -37 3z m-75 -60 c12 -19 11 -19 -8 -9 -11 6 -20 15
-20 20 0 17 15 11 28 -11z m-199 -413 c35 -36 40 -44 26 -50 -39 -14 -51 -6
-67 44 -9 28 -13 50 -9 50 4 0 26 -20 50 -44z"/>
<path d="M9026 3148 c-19 -26 -17 -29 12 -21 13 3 22 13 22 24 0 25 -15 24
-34 -3z"/>
<path d="M5050 2736 c-28 -85 -49 -131 -63 -141 -33 -23 -110 -20 -133 6 l-19
21 -5 -23 c-6 -26 -30 -38 -30 -14 0 13 -4 14 -20 5 -11 -6 -31 -8 -44 -4 -18
4 -26 1 -31 -13 -3 -10 -22 -31 -41 -47 -32 -26 -38 -28 -70 -18 -39 12 -39
11 -19 -28 14 -27 13 -30 -21 -72 -20 -24 -42 -47 -50 -51 -12 -7 -11 -12 2
-33 9 -13 14 -27 11 -31 -9 -8 -37 17 -37 34 0 7 -7 16 -16 20 -8 3 -13 11
-10 18 8 22 -43 25 -55 4 -7 -15 -6 -19 5 -19 7 0 17 -7 20 -16 3 -9 11 -12
18 -8 8 5 9 2 5 -10 -4 -10 -7 -23 -7 -30 0 -7 -12 -17 -27 -23 l-28 -11 36
-1 c31 -1 39 -6 49 -31 16 -38 25 -38 38 -1 7 21 19 31 41 36 33 7 33 30 -1
41 -13 4 -17 11 -12 22 3 10 9 30 13 47 5 23 14 31 39 36 29 6 34 3 53 -30 20
-33 22 -34 30 -16 4 11 8 30 8 43 1 12 6 22 11 22 6 0 10 7 10 15 0 8 5 15 10
15 6 0 10 -4 10 -9 0 -6 24 -7 54 -4 48 5 54 4 52 -12 -4 -27 -33 -39 -52 -21
-19 19 -31 21 -15 3 12 -16 -4 -37 -28 -37 -8 0 -11 -3 -8 -7 4 -3 2 -12 -5
-20 -13 -16 -5 -26 25 -30 12 -2 26 -8 31 -13 6 -6 16 -4 26 5 9 8 25 12 37 9
17 -5 21 -16 27 -81 4 -41 4 -95 0 -119 l-6 -45 105 76 c57 42 115 78 127 80
15 3 53 -19 131 -76 60 -43 109 -74 109 -67 0 7 -14 68 -31 136 -18 67 -30
125 -26 128 3 3 23 -6 46 -20 22 -14 45 -26 50 -26 5 0 14 -7 21 -15 11 -13
15 -13 21 -3 7 10 9 10 9 -1 0 -10 3 -11 13 -3 10 8 20 4 41 -19 16 -17 32
-26 35 -20 4 5 15 9 26 8 13 -1 21 7 28 31 6 17 14 32 20 32 5 0 2 11 -7 25
-26 40 -21 55 19 53 43 -2 48 3 40 35 -5 18 -15 27 -38 31 -17 3 -33 2 -36 -2
-3 -5 -15 -14 -26 -20 -17 -9 -25 -6 -53 21 l-33 32 3 -40 c3 -36 0 -42 -32
-62 -19 -12 -38 -23 -41 -23 -4 0 -10 15 -13 34 -6 31 -3 38 36 75 24 22 49
41 57 41 7 0 11 6 8 15 -4 8 -1 18 6 22 17 10 -27 21 -93 22 -51 1 -57 4 -91
44 l-37 42 -18 -37 c-10 -21 -23 -38 -29 -38 -6 0 -30 60 -54 133 -24 72 -47
136 -51 140 -4 5 -27 -48 -50 -117z m-327 -248 c7 -27 5 -30 -17 -22 -19 7
-22 44 -2 44 7 0 16 -10 19 -22z m700 -145 c7 -7 -11 -33 -23 -33 -4 0 -10 9
-13 20 -4 14 0 20 12 20 10 0 21 -3 24 -7z"/>
<path d="M4362 2830 c6 -20 37 -25 52 -9 8 9 7 10 -8 5 -10 -3 -25 -1 -34 6
-13 11 -14 10 -10 -2z"/>
<path d="M4515 2771 c-11 -9 -29 -27 -40 -40 l-20 -24 21 7 c15 5 24 2 28 -10
5 -13 9 -14 21 -4 8 7 15 9 15 6 0 -4 8 0 17 10 15 15 15 18 1 28 -9 6 -17 19
-19 28 -4 15 -6 15 -24 -1z"/>
<path d="M4237 2745 c6 -18 34 -16 41 3 2 7 -6 12 -22 12 -19 0 -24 -4 -19
-15z"/>
<path d="M4317 2740 c3 -12 -1 -22 -11 -26 -21 -8 -21 -26 1 -22 9 2 16 8 16
13 0 18 31 35 39 22 5 -8 8 -5 8 6 0 11 -5 17 -12 14 -7 -2 -20 0 -30 4 -13 7
-15 5 -11 -11z"/>
<path d="M6012 2631 c-35 -42 -78 -93 -96 -113 l-33 -38 -39 20 c-28 15 -38
26 -36 40 2 11 -3 26 -10 34 -11 11 -16 11 -27 -1 -14 -15 -32 -14 -34 2 -2
19 -76 45 -131 46 -27 0 -29 -6 -12 -39 8 -16 12 -32 9 -36 -16 -16 -9 -36 17
-45 32 -11 64 -64 75 -123 6 -29 3 -38 -12 -46 -17 -10 -17 -11 -1 -17 14 -5
16 -14 11 -34 -6 -23 -5 -25 11 -12 37 31 22 -1 -49 -104 -41 -60 -73 -110
-72 -111 1 -1 66 7 145 18 78 11 148 18 155 15 7 -3 53 -68 102 -146 50 -77
93 -141 96 -141 4 0 8 72 11 161 3 115 7 162 17 168 7 4 73 21 147 37 l134 28
2 41 c0 22 0 50 -1 61 -2 33 17 74 34 74 20 0 19 -19 0 -26 -14 -6 -13 -8 2
-19 15 -11 19 -11 26 1 5 8 6 23 2 33 -5 15 3 22 41 35 26 9 48 15 49 13 10
-11 14 -47 5 -52 -5 -3 -10 -15 -10 -27 0 -11 -8 -22 -20 -25 -11 -3 -20 -9
-20 -14 0 -4 21 1 46 11 55 24 65 25 58 5 -4 -11 -2 -13 9 -9 9 3 25 0 36 -6
17 -9 25 -8 37 5 21 20 51 19 63 -2 9 -16 10 -16 11 5 0 12 5 22 11 22 5 0 -2
11 -18 26 -23 22 -25 28 -15 45 17 27 0 59 -28 52 -16 -4 -20 0 -20 20 0 13
-6 30 -13 36 -10 8 -19 4 -36 -19 -12 -17 -31 -30 -43 -30 -17 0 -18 2 -8 15
10 12 10 15 -3 15 -9 0 -19 -4 -22 -10 -3 -5 -15 -10 -26 -10 -10 0 -19 -4
-19 -10 0 -14 -12 -13 -73 10 l-54 20 -1 58 c0 31 -4 68 -9 80 -9 23 -10 23
-47 -22 -20 -25 -44 -46 -53 -46 -9 0 -31 11 -50 26 -25 19 -33 22 -33 10 0
-9 -4 -16 -9 -16 -6 0 -7 16 -4 37 l6 37 -43 -37 c-24 -20 -47 -37 -52 -37 -4
0 -9 19 -9 43 -1 23 -4 54 -8 68 -6 25 -9 23 -69 -50z m193 -201 c0 -8 -9 -16
-20 -19 -11 -2 -23 -8 -27 -14 -4 -6 -10 -8 -14 -5 -4 4 1 19 10 33 18 28 51
31 51 5z m113 -146 c19 -25 32 -48 29 -50 -2 -3 -35 13 -73 35 -43 25 -63 42
-54 45 13 4 47 12 60 14 3 1 20 -19 38 -44z"/>
<path d="M4483 2604 c-18 -19 11 -41 32 -24 8 7 15 16 15 20 0 14 -35 17 -47
4z"/>
<path d="M4378 2576 c-2 -12 4 -29 14 -39 18 -17 19 -17 25 0 4 10 13 23 20
28 10 8 5 13 -21 21 -31 10 -35 9 -38 -10z"/>
<path d="M6800 2555 c0 -8 4 -15 8 -15 5 0 9 7 9 15 0 8 -4 15 -9 15 -4 0 -8
-7 -8 -15z"/>
<path d="M7240 2516 c0 -20 -4 -35 -9 -32 -5 3 -11 -3 -14 -14 -3 -11 -10 -20
-17 -20 -6 0 -9 4 -5 9 11 19 -12 19 -28 0 -19 -21 -34 -23 -71 -9 -29 10 -27
1 7 -58 16 -28 17 -35 6 -50 -12 -15 -12 -16 2 -4 14 10 18 10 23 -3 3 -8 0
-15 -6 -15 -11 0 -37 -29 -38 -42 0 -4 14 -15 31 -24 24 -12 43 -14 78 -8 43
7 44 8 16 13 -32 7 -42 31 -31 77 5 17 13 24 31 24 25 0 29 -9 28 -72 0 -10 2
-18 3 -18 2 0 15 23 30 51 24 44 31 49 52 44 13 -3 37 -9 53 -12 24 -4 27 -8
18 -20 -9 -10 -9 -20 0 -40 11 -24 10 -29 -11 -45 l-23 -18 28 0 c15 0 30 -7
33 -15 8 -21 21 -19 29 5 4 11 20 23 38 28 30 8 31 9 10 16 -13 4 -23 11 -23
14 0 15 42 43 56 38 8 -3 14 -1 14 4 0 6 -4 10 -10 10 -5 0 -10 7 -10 16 0 9
-9 18 -20 21 -11 3 -17 9 -14 14 3 5 9 7 14 4 5 -3 11 -1 15 5 4 6 10 8 15 5
4 -3 6 4 3 15 -6 24 -18 25 -57 5 -16 -8 -36 -14 -45 -13 -10 2 -15 -3 -13
-14 4 -27 -16 -31 -41 -6 -50 50 -50 52 -21 110 14 29 20 47 13 41 -19 -18
-58 -16 -66 3 -6 15 -7 15 -19 -1 -13 -18 -14 -18 -34 0 -20 18 -20 18 -20
-19z m-80 -231 c0 -10 -10 -15 -26 -15 -22 0 -25 2 -14 15 7 8 19 15 26 15 8
0 14 -7 14 -15z"/>
<path d="M7568 2532 c-4 -12 -2 -22 2 -22 5 0 17 -3 27 -6 16 -5 16 -4 2 8 -9
7 -18 20 -21 28 -3 10 -6 8 -10 -8z"/>
<path d="M6510 2530 c0 -5 7 -10 16 -10 8 0 12 5 9 10 -3 6 -10 10 -16 10 -5
0 -9 -4 -9 -10z"/>
<path d="M6807 2513 c-6 -6 -28 -10 -65 -12 -7 -1 -11 -5 -8 -10 3 -4 17 -6
31 -3 15 2 25 0 25 -7 0 -19 17 -12 34 14 13 20 14 25 3 25 -8 0 -17 -3 -20
-7z"/>
<path d="M6875 2480 c-4 -6 -15 -8 -25 -5 -11 4 -17 1 -16 -7 0 -7 -3 -14 -7
-15 -17 -4 -47 -52 -41 -66 3 -8 19 -17 35 -19 25 -4 29 -1 29 19 0 30 9 29
47 -5 37 -35 56 -36 70 -5 9 18 8 23 -2 23 -8 0 -18 7 -23 16 -8 15 -10 15
-15 0 -8 -20 -37 -21 -37 -2 0 8 5 16 11 18 6 2 8 14 4 31 -7 28 -19 35 -30
17z"/>
<path d="M4297 2413 c-9 -8 -13 -9 -59 -11 -24 -2 -27 -6 -26 -41 0 -22 -3
-44 -6 -50 -4 -6 -1 -11 7 -11 8 0 26 -9 40 -20 33 -26 36 -25 48 9 6 16 20
32 32 35 21 5 21 6 3 19 -10 7 -21 28 -24 46 -4 18 -11 29 -15 24z"/>
<path d="M7825 2380 c-3 -5 -1 -10 4 -10 6 0 11 5 11 10 0 6 -2 10 -4 10 -3 0
-8 -4 -11 -10z"/>
<path d="M6758 2373 c7 -3 16 -2 19 1 4 3 -2 6 -13 5 -11 0 -14 -3 -6 -6z"/>
<path d="M9235 2331 c7 -22 5 -23 -20 -17 l-27 7 23 -29 c13 -16 25 -23 27
-17 2 7 12 16 23 21 20 9 19 10 -7 34 l-26 25 7 -24z"/>
<path d="M6470 2320 c0 -5 5 -10 11 -10 5 0 7 5 4 10 -3 6 -8 10 -11 10 -2 0
-4 -4 -4 -10z"/>
<path d="M6855 2321 c-3 -5 -1 -12 4 -15 5 -3 11 1 15 9 6 16 -9 21 -19 6z"/>
<path d="M9177 2283 c-4 -3 -7 -11 -7 -17 0 -6 5 -5 12 2 6 6 9 14 7 17 -3 3
-9 2 -12 -2z"/>
<path d="M6473 2265 c0 -8 4 -12 9 -9 4 3 8 9 8 15 0 5 -4 9 -8 9 -5 0 -9 -7
-9 -15z"/>
<path d="M6745 2260 c-3 -5 -4 -10 -1 -10 2 0 12 -3 20 -6 12 -5 15 -2 10 10
-7 18 -20 21 -29 6z"/>
<path d="M7254 2258 c-7 -10 37 -10 54 0 8 6 2 9 -18 9 -17 0 -33 -4 -36 -9z"/>
</g>
</svg>
