<?xml version="1.0" standalone="no"?>
<!DOCTYPE svg PUBLIC "-//W3C//DTD SVG 20010904//EN"
 "http://www.w3.org/TR/2001/REC-SVG-20010904/DTD/svg10.dtd">
<svg version="1.0" xmlns="http://www.w3.org/2000/svg"
 width="1271.000000pt" height="1280.000000pt" viewBox="0 0 1271.000000 1280.000000"
 preserveAspectRatio="xMidYMid meet">
<metadata>
Created by potrace 1.15, written by Peter Selinger 2001-2017
</metadata>
<g transform="translate(0.000000,1280.000000) scale(0.100000,-0.100000)"
fill="#009688" stroke="none">
<path d="M4225 10628 c-12 -38 -24 -521 -15 -600 13 -110 49 -227 93 -298 19
-30 53 -86 77 -125 24 -38 56 -86 72 -105 119 -140 345 -251 598 -294 238 -40
462 -40 1290 -1 370 18 2038 124 2193 139 38 4 46 2 40 -8 -11 -19 -264 -286
-708 -746 -2006 -2080 -3548 -3823 -4622 -5220 l-149 -195 -32 -150 c-53 -254
-65 -327 -65 -410 -1 -97 12 -145 55 -209 18 -27 42 -66 53 -86 55 -102 119
-149 240 -180 98 -25 174 -25 412 -1 745 77 827 82 1471 88 1755 16 2800 -141
3637 -547 77 -38 177 -89 221 -114 63 -35 84 -43 92 -33 16 20 35 321 28 452
-14 252 -57 416 -158 600 -82 150 -139 228 -206 281 -233 184 -875 335 -1737
409 -577 48 -1631 69 -2312 45 -195 -7 -356 -10 -359 -7 -18 18 929 1138 1791
2117 1310 1489 2168 2431 2891 3175 479 493 550 604 638 997 36 161 86 460 79
471 -3 5 -26 7 -50 3 -43 -6 -45 -5 -40 17 12 48 19 116 13 125 -3 6 -46 2
-108 -9 -367 -68 -859 -118 -1453 -150 -318 -16 -1708 -23 -2005 -10 -973 45
-1561 207 -1880 518 -41 40 -76 73 -78 73 -1 0 -4 -6 -7 -12z"/>
</g>
</svg>
